<svg width="50" height="50" viewBox="0 0 50 50" fill="none" xmlns="http://www.w3.org/2000/svg">
<g filter="url(#filter0_d)">
<path d="M14.3473 15.5H13.3473V21.85H14.3473V15.5ZM18.4723 27.375C18.4723 28.425 17.7889 28.95 16.4223 28.95H9.22227V25.8H14.3473V25H11.2723C9.87227 25 9.18893 24.475 9.22227 23.425V13.925C9.22227 12.8583 9.9056 12.325 11.2723 12.325H18.4723V27.375ZM24.65 25V15.5H23.65V25H19.525V9.15H23.65V12.325H26.725C28.0917 12.325 28.775 12.8583 28.775 13.925V25H24.65ZM29.8528 37.425C29.8528 38.4917 29.1695 39.0167 27.8028 39H22.6528C21.2862 39 20.6028 38.475 20.6028 37.425V30.275H19.5778V27.125H20.6028V26.325H24.7278V27.125H29.8528V30.275H24.7278V35.85H25.7528V31.075H29.8528V37.425ZM36.0392 34.25H35.0392V35.85H36.0392V34.25ZM32.9642 39C31.5975 39 30.9142 38.475 30.9142 37.425V32.65C30.9142 31.6167 31.5975 31.0917 32.9642 31.075H36.0392V29.5H35.0392V30.275H30.9142V27.925C30.9142 26.8583 31.5975 26.325 32.9642 26.325H38.1142C39.4808 26.325 40.1642 26.8583 40.1642 27.925V39H32.9642Z" fill="white"/>
</g>
<defs>
<filter id="filter0_d" x="7.22113" y="8.1499" width="34.9431" height="33.8504" filterUnits="userSpaceOnUse" color-interpolation-filters="sRGB">
<feFlood flood-opacity="0" result="BackgroundImageFix"/>
<feColorMatrix in="SourceAlpha" type="matrix" values="0 0 0 0 0 0 0 0 0 0 0 0 0 0 0 0 0 0 127 0"/>
<feOffset dy="1"/>
<feGaussianBlur stdDeviation="1"/>
<feColorMatrix type="matrix" values="0 0 0 0 0 0 0 0 0 0 0 0 0 0 0 0 0 0 0.25 0"/>
<feBlend mode="normal" in2="BackgroundImageFix" result="effect1_dropShadow"/>
<feBlend mode="normal" in="SourceGraphic" in2="effect1_dropShadow" result="shape"/>
</filter>
</defs>
</svg>
